<svg width="64" height="64" viewBox="0 0 64 64" fill="none" xmlns="http://www.w3.org/2000/svg">
<path fill-rule="evenodd" clip-rule="evenodd" d="M39.68 14.08H24.32C18.6646 14.08 14.08 18.6646 14.08 24.32V39.68C14.08 45.3353 18.6646 49.92 24.32 49.92H39.68C45.3353 49.92 49.92 45.3353 49.92 39.68V24.32C49.92 18.6646 45.3353 14.08 39.68 14.08Z" stroke="white" stroke-width="3.84" stroke-linecap="round" stroke-linejoin="round"/>
<path fill-rule="evenodd" clip-rule="evenodd" d="M31.9999 39.68C27.7583 39.68 24.3199 36.2417 24.3199 32C24.3199 27.7583 27.7583 24.32 31.9999 24.32C36.2416 24.32 39.6799 27.7583 39.6799 32C39.6799 34.0367 38.8707 35.9903 37.4305 37.4305C35.9902 38.8708 34.0367 39.68 31.9999 39.68Z" stroke="white" stroke-width="3.84" stroke-linecap="round" stroke-linejoin="round"/>
<path d="M42.2399 19.2C40.8261 19.2 39.6799 20.3462 39.6799 21.76C39.6799 23.1738 40.8261 24.32 42.2399 24.32C43.6538 24.32 44.7999 23.1738 44.7999 21.76C44.7999 20.3462 43.6538 19.2 42.2399 19.2Z" fill="white" stroke="white" stroke-width="2.56"/>
<path d="M42.24 20.48C41.533 20.48 40.96 21.0531 40.96 21.76C40.96 22.4669 41.533 23.04 42.24 23.04C42.9469 23.04 43.52 22.4669 43.52 21.76C43.52 21.0531 42.9469 20.48 42.24 20.48Z" stroke="white" stroke-width="2.56" stroke-linecap="round"/>
</svg>
