<svg width="63" height="64" viewBox="0 0 63 64" fill="none" xmlns="http://www.w3.org/2000/svg">
<path d="M16.7298 29.9047L15.1828 31.4517C14.7918 31.8427 14.7918 32.4747 15.1828 32.8657C15.3778 33.0607 15.6338 33.1587 15.8898 33.1587C16.1458 33.1587 16.4018 33.0607 16.5968 32.8657L18.1438 31.3187C18.5348 30.9277 18.5348 30.2957 18.1438 29.9047C17.7528 29.5137 17.1208 29.5137 16.7298 29.9047Z" fill="#F4F4F4"/>
<path d="M12.8627 33.7707L9.14475 37.4897C4.91275 41.7217 5.02975 48.4697 9.41275 52.8527C9.60775 53.0477 9.86375 53.1457 10.1197 53.1457C10.3757 53.1457 10.6317 53.0477 10.8267 52.8527C11.2177 52.4617 11.2177 51.8297 10.8267 51.4387C9.09275 49.7047 8.10275 47.4687 8.04075 45.1447C7.97775 42.8057 8.87275 40.5897 10.5587 38.9037L14.2767 35.1847C14.6677 34.7937 14.6677 34.1617 14.2767 33.7707C13.8857 33.3797 13.2537 33.3807 12.8627 33.7707Z" fill="#F4F4F4"/>
<path d="M61.9418 1.66573C61.7588 0.578729 60.7298 -0.15427 59.6427 0.0277296C58.5547 0.20873 57.8198 1.23873 57.9967 2.32673C58.1937 3.53673 58.3697 7.11773 56.8267 9.12873C56.1177 10.0517 55.0988 10.5677 53.7127 10.7067C48.2598 11.2517 45.4567 13.7947 44.0697 15.7787C41.2487 13.1017 37.5788 11.6217 33.6758 11.6217C29.6357 11.6217 25.8377 13.1947 22.9818 16.0527L4.42275 34.6107C-1.47425 40.5077 -1.47425 50.1037 4.42275 55.9997L7.51575 59.0927C10.3717 61.9497 14.1697 63.5237 18.2097 63.5237C22.2497 63.5237 26.0477 61.9507 28.9027 59.0927L47.4637 40.5327C53.3597 34.6357 53.3597 25.0407 47.4637 19.1437L46.9637 18.6437C47.5687 17.5027 49.3697 15.1607 54.1107 14.6857C56.5927 14.4377 58.6337 13.3507 60.0127 11.5447C62.9247 7.73173 61.9838 1.91173 61.9418 1.66573ZM25.8107 18.8807C27.9127 16.7787 30.7068 15.6217 33.6768 15.6217C36.6468 15.6217 39.4417 16.7787 41.5428 18.8807L42.3817 19.7187L38.1828 23.9187C36.9938 23.3527 35.4738 23.5347 34.5168 24.4917L31.4227 27.5857C30.8207 28.1877 30.4888 28.9867 30.4888 29.8387C30.4888 30.3437 30.6187 30.8237 30.8387 31.2627L29.7238 32.3777C26.1538 28.7147 22.8337 24.9547 21.6698 23.0217L25.8107 18.8807ZM37.6097 27.5857L34.5158 30.6787C34.0667 31.1277 33.2868 31.1267 32.8368 30.6787C32.6118 30.4537 32.4888 30.1567 32.4888 29.8387C32.4888 29.5227 32.6118 29.2247 32.8368 28.9997L35.9307 25.9057C36.1547 25.6817 36.4517 25.5577 36.7697 25.5577C37.0877 25.5577 37.3857 25.6817 37.6097 25.9057C38.0728 26.3687 38.0718 27.1227 37.6097 27.5857ZM26.0758 56.2647C23.9748 58.3667 21.1817 59.5237 18.2107 59.5237C15.2387 59.5237 12.4457 58.3667 10.3447 56.2647L7.25075 53.1717C2.91375 48.8337 2.91375 41.7767 7.25075 37.4397L20.2428 24.4477C23.4097 29.0937 34.3908 40.6377 39.0368 43.3027L26.0758 56.2647ZM44.6357 37.7047L40.5117 41.8287C39.2248 41.4557 35.1868 37.8597 31.1278 33.7997L32.2528 32.6757C32.6908 32.8967 33.1717 33.0257 33.6768 33.0257C34.5288 33.0257 35.3287 32.6947 35.9307 32.0917L39.0238 28.9987C40.0177 28.0037 40.2028 26.5167 39.6058 25.3227L43.7957 21.1317L44.6357 21.9717C48.9727 26.3097 48.9727 33.3677 44.6357 37.7047Z" fill="#F4F4F4"/>
</svg>
