<svg width="70" height="70" viewBox="0 0 70 70" fill="none" xmlns="http://www.w3.org/2000/svg">
<path d="M65.625 13.125H59.0625V2.1875C59.0625 0.978906 58.0836 0 56.875 0H13.125C11.9164 0 10.9375 0.978906 10.9375 2.1875V13.125H4.375C1.95672 13.125 0 15.0817 0 17.5V52.5C0 54.9183 1.95672 56.875 4.375 56.875H10.9375V67.8125C10.9375 69.0211 11.9164 70 13.125 70H56.875C58.0836 70 59.0625 69.0211 59.0625 67.8125V56.875H65.625C68.0433 56.875 70 54.9183 70 52.5V17.5C70 15.0817 68.0433 13.125 65.625 13.125ZM13.125 3.28125C13.125 2.67641 13.6139 2.1875 14.2188 2.1875H55.7812C56.3861 2.1875 56.875 2.67641 56.875 3.28125V13.125H13.125V3.28125ZM56.875 66.7188C56.875 67.3236 56.3861 67.8125 55.7812 67.8125H14.2188C13.6139 67.8125 13.125 67.3236 13.125 66.7188V40.4688C13.125 39.8639 13.6139 39.375 14.2188 39.375H55.7812C56.3861 39.375 56.875 39.8639 56.875 40.4688V66.7188ZM67.8125 52.5C67.8125 53.7075 66.8325 54.6875 65.625 54.6875H59.0625V39.375C59.0625 38.1664 58.0836 37.1875 56.875 37.1875H13.125C11.9164 37.1875 10.9375 38.1664 10.9375 39.375V54.6875H4.375C3.1675 54.6875 2.1875 53.7075 2.1875 52.5V17.5C2.1875 16.2925 3.1675 15.3125 4.375 15.3125H65.625C66.8325 15.3125 67.8125 16.2925 67.8125 17.5V52.5Z" fill="#F4F4F4"/>
<path d="M20.7812 48.125H33.9062C34.5111 48.125 35 47.6361 35 47.0312C35 46.4264 34.5111 45.9375 33.9062 45.9375H20.7812C20.1764 45.9375 19.6875 46.4264 19.6875 47.0312C19.6875 47.6361 20.1764 48.125 20.7812 48.125Z" fill="#F4F4F4"/>
<path d="M49.2188 52.5H20.7812C20.1764 52.5 19.6875 52.9889 19.6875 53.5938C19.6875 54.1986 20.1764 54.6875 20.7812 54.6875H49.2188C49.8236 54.6875 50.3125 54.1986 50.3125 53.5938C50.3125 52.9889 49.8236 52.5 49.2188 52.5Z" fill="#F4F4F4"/>
<path d="M41.5625 59.0625H20.7812C20.1764 59.0625 19.6875 59.5514 19.6875 60.1562C19.6875 60.7611 20.1764 61.25 20.7812 61.25H41.5625C42.1673 61.25 42.6562 60.7611 42.6562 60.1562C42.6562 59.5514 42.1673 59.0625 41.5625 59.0625Z" fill="#F4F4F4"/>
<path d="M60.1562 19.6875C58.3439 19.6875 56.875 21.1564 56.875 22.9688C56.875 24.7811 58.3439 26.25 60.1562 26.25C61.9686 26.25 63.4375 24.7811 63.4375 22.9688C63.4375 21.1564 61.9686 19.6875 60.1562 19.6875ZM60.1562 24.0625C59.5514 24.0625 59.0625 23.5736 59.0625 22.9688C59.0625 22.3639 59.5514 21.875 60.1562 21.875C60.7611 21.875 61.25 22.3639 61.25 22.9688C61.25 23.5736 60.7611 24.0625 60.1562 24.0625Z" fill="#F4F4F4"/>
<path d="M49.2188 19.6875C47.4064 19.6875 45.9375 21.1564 45.9375 22.9688C45.9375 24.7811 47.4064 26.25 49.2188 26.25C51.0311 26.25 52.5 24.7811 52.5 22.9688C52.5 21.1564 51.0311 19.6875 49.2188 19.6875ZM49.2188 24.0625C48.6139 24.0625 48.125 23.5736 48.125 22.9688C48.125 22.3639 48.6139 21.875 49.2188 21.875C49.8236 21.875 50.3125 22.3639 50.3125 22.9688C50.3125 23.5736 49.8236 24.0625 49.2188 24.0625Z" fill="#F4F4F4"/>
</svg>
