<svg width="70" height="70" viewBox="0 0 70 70" fill="none" xmlns="http://www.w3.org/2000/svg">
<path d="M31.2872 4.40508V20.0208H33.7054V4.40481L31.2872 4.40508ZM16.4874 4.49039C14.3673 4.49039 12.6464 6.21114 12.6464 8.33123C12.6464 10.4513 14.3673 12.168 16.4874 12.168C18.2176 12.168 19.6784 11.0234 20.1575 9.45069H26.3012V20.0208H28.7195V7.03254H20.1017C19.5701 5.55092 18.1518 4.49039 16.4874 4.49039ZM42.9083 4.49039C40.7882 4.49039 39.0716 6.21114 39.0716 8.33123C39.0716 9.98881 40.1212 11.4006 41.5927 11.9373V20.0207H44.0064V12.0099C45.5918 11.538 46.7494 10.0695 46.7494 8.33137C46.7494 6.21114 45.0284 4.49039 42.9083 4.49039ZM36.3841 12.6465V20.0208H38.7981V12.6465H36.3841ZM62.1599 13.1975C60.0398 13.1975 58.319 14.9185 58.319 17.0386C58.319 18.8273 59.5423 20.3299 61.1987 20.7557V24.5111H48.4923V26.9251H63.6167V20.5893C65.0144 20.0162 65.9965 18.6434 65.9965 17.0387C65.9965 14.9186 64.28 13.1975 62.1599 13.1975ZM4.12708 16.9062V19.3245H13.2275V26.9253H21.8153V24.5109H15.6458V16.9061L4.12708 16.9062ZM24.2291 22.4392V44.2757H46.0781V22.439L24.2291 22.4392ZM26.6299 24.5796H29.0439V35.325L33.4746 39.7555H43.7668V42.1697H32.4706L32.116 41.815L30.6463 40.3453C30.505 41.355 29.64 42.1311 28.5914 42.1311C27.444 42.1311 26.5146 41.202 26.5146 40.0548C26.5146 39.0045 27.2934 38.1434 28.305 38.004L26.9849 36.6836L26.6303 36.329L26.6299 24.5796ZM34.1412 24.601H36.5592V32.1634H43.7411L43.7413 34.5816H34.1414L34.1412 24.601ZM7.26299 29.7192V42.0197C5.69209 42.4998 4.54995 43.9608 4.54995 45.6898C4.54995 47.8096 6.26672 49.5306 8.38682 49.5306C10.5069 49.5306 12.2277 47.8097 12.2277 45.6899C12.2277 44.0226 11.1626 42.605 9.67704 42.0753V32.1331H21.8152V29.7194L7.26299 29.7192ZM48.4923 29.7192V32.1331H55.8707V29.7194L48.4923 29.7192ZM62.1598 32.723C60.6698 32.723 59.3787 33.572 58.7418 34.812H48.492L48.4923 37.2303H58.3789C58.6967 39.0306 60.2689 40.4004 62.1599 40.4004C64.28 40.4004 65.9967 38.6794 65.9967 36.5594C65.9967 34.4393 64.2799 32.723 62.1598 32.723ZM14.4365 34.812V37.2303H21.8152V34.812H14.4365ZM16.782 39.7981V51.3122C15.21 51.7925 14.0648 53.2536 14.0648 54.9823C14.0648 57.1022 15.7856 58.8232 17.9057 58.8232C20.0257 58.8232 21.7421 57.1022 21.7421 54.9823C21.7421 53.3151 20.6803 51.8973 19.1958 51.3678V42.2159H21.8148V39.7979L16.782 39.7981ZM48.4923 39.7981V42.2162H54.666V55.2431C53.1179 55.7386 51.9959 57.1927 51.9959 58.9045C51.9956 61.0244 53.7165 62.7412 55.8366 62.7412C57.9567 62.7412 59.6733 61.0244 59.6733 58.9046C59.6733 57.2202 58.5884 55.7904 57.0797 55.2729V39.7981H48.4923ZM26.3012 46.6936V54.0809H28.7195V46.6936H26.3012ZM31.2873 46.6936V58.5285C29.7817 59.0472 28.6979 60.4744 28.6979 62.1556C28.6979 64.2756 30.4189 65.9967 32.539 65.9967C34.6591 65.9967 36.3757 64.2755 36.3757 62.1556C36.3757 60.4425 35.2542 58.992 33.7054 58.4984V46.6936H31.2873ZM36.3842 46.6936V54.0809H38.8025L38.7981 46.6937L36.3842 46.6936ZM41.5924 46.6936V65.8429H44.0062V46.6936H41.5924Z" fill="#F4F4F4"/>
</svg>
