<svg width="40" height="34" viewBox="0 0 40 34" fill="none" xmlns="http://www.w3.org/2000/svg">
<path d="M38.8206 4.78579C38.6234 4.8434 38.4262 4.89704 38.2291 4.94699C37.0236 5.25136 36.9128 4.84973 37.7856 3.96363C38.1764 3.56656 38.5217 3.13469 38.8216 2.66824C39.4938 1.62227 38.9108 1.16612 37.7671 1.65471C37.3591 1.829 36.9444 1.98704 36.5239 2.12793C35.3455 2.52367 33.6733 1.92671 32.6233 1.26073C31.2977 0.420097 29.7911 0 28.1032 0C25.7388 0 23.7235 0.833867 22.0561 2.50028C20.3893 4.16757 19.5554 6.18345 19.5554 8.54724C19.5554 8.87052 19.5739 9.19873 19.6104 9.53149C19.6703 10.0731 18.758 10.4658 17.527 10.2919C14.8642 9.91598 12.3342 9.10912 9.93651 7.87222C7.55866 6.6457 5.46001 5.10223 3.64094 3.24174C2.77139 2.35254 1.59534 2.42913 1.27067 3.62946C1.07614 4.349 0.979397 5.0973 0.979397 5.87452C0.979397 7.33919 1.32335 8.69763 2.01139 9.94982C2.35358 10.573 2.75432 11.1371 3.21452 11.6419C3.98857 12.4916 3.87012 12.9846 2.79266 12.6825C1.71563 12.3804 0.926351 11.9319 0.926351 11.9612C0.926351 11.9905 0.926351 12.0143 0.926351 12.0143C0.926351 14.0779 1.5743 15.8911 2.87101 17.4521C3.66978 18.4139 4.59775 19.1568 5.65454 19.68C6.76894 20.232 7.28806 20.5399 6.66491 20.6206C6.28895 20.6692 5.91072 20.6935 5.53028 20.6935C5.27277 20.6935 5.00262 20.6818 4.72076 20.658C4.27499 20.6201 4.19487 21.549 4.8707 22.5928C5.40785 23.4221 6.09538 24.152 6.93293 24.7824C7.78482 25.424 8.70293 25.8846 9.68578 26.1651C10.8817 26.506 11.1217 27.1269 10.0554 27.7663C7.41689 29.3495 4.49695 30.141 1.29605 30.141C0.9354 30.141 0.591377 30.1329 0.26273 30.1171C-0.307748 30.0897 0.0749742 30.5921 1.17628 31.1689C4.61761 32.9714 8.34441 33.8718 12.3572 33.8718C15.3911 33.8718 18.2403 33.3915 20.9045 32.4301C23.5677 31.4688 25.8438 30.1805 27.7313 28.5664C29.6188 26.9522 31.2465 25.0958 32.614 22.9962C33.981 20.8966 34.9995 18.7047 35.6704 16.4206C36.3403 14.1359 36.6758 11.8468 36.6758 9.5532C36.6758 9.34653 36.674 9.16098 36.6709 8.99758C36.6645 8.69049 37.4768 7.85927 38.3836 7.00878C38.7929 6.62473 39.1833 6.2217 39.5561 5.79896C40.3786 4.86547 40.0144 4.43772 38.8206 4.78579Z" fill="white"/>
</svg>
