<svg width="63" height="60" viewBox="0 0 63 60" fill="none" xmlns="http://www.w3.org/2000/svg">
<path d="M54.5 25.3333C54.5 12.4467 44.0534 2 31.1667 2C18.2801 2 7.83337 12.4467 7.83337 25.3333" stroke="#F4F4F4" stroke-width="4" stroke-linecap="round" stroke-linejoin="round"/>
<path d="M2 38.2787V32.8047C2 30.1277 3.82172 27.7947 6.41855 27.1455L11.4922 25.877C12.5967 25.6008 13.6667 26.4361 13.6667 27.5748V43.5085C13.6667 44.6472 12.5967 45.4825 11.4922 45.2063L6.41855 43.9379C3.82172 43.2886 2 40.9556 2 38.2787Z" stroke="#F4F4F4" stroke-width="4"/>
<path d="M60.3333 38.2787V32.8047C60.3333 30.1277 58.5115 27.7947 55.9148 27.1455L50.841 25.877C49.7365 25.6008 48.6666 26.4361 48.6666 27.5748V43.5085C48.6666 44.6472 49.7365 45.4825 50.841 45.2063L55.9148 43.9379C58.5115 43.2886 60.3333 40.9556 60.3333 38.2787Z" stroke="#F4F4F4" stroke-width="4"/>
<path d="M54.5 45.75V47.2083C54.5 50.4301 51.8885 53.0417 48.6667 53.0417H38.4584" stroke="#F4F4F4" stroke-width="4"/>
<path d="M35.5416 57.4167H26.7916C24.3754 57.4167 22.4166 55.4578 22.4166 53.0417C22.4166 50.6255 24.3754 48.6667 26.7916 48.6667H35.5416C37.9578 48.6667 39.9166 50.6255 39.9166 53.0417C39.9166 55.4578 37.9578 57.4167 35.5416 57.4167Z" stroke="#F4F4F4" stroke-width="4"/>
</svg>
