<svg width="70" height="70" viewBox="0 0 70 70" fill="none" xmlns="http://www.w3.org/2000/svg">
<path d="M70 0H0V70H70V0Z" stroke="black" stroke-width="0.00064"/>
<path d="M26.25 49.5833C27.0235 49.5833 27.7654 49.276 28.3124 48.729C28.8594 48.1821 29.1667 47.4402 29.1667 46.6666V36.1666L31.5 38.5C31.7806 38.817 32.1301 39.0655 32.5218 39.2264C32.9134 39.3873 33.3366 39.4563 33.7591 39.4282C34.1815 39.4 34.5919 39.2754 34.9587 39.0639C35.3255 38.8525 35.6389 38.5598 35.875 38.2083C36.2987 37.623 36.5018 36.9068 36.4484 36.1863C36.395 35.4657 36.0886 34.7873 35.5833 34.2708L28.2917 27.125C28.0321 26.8421 27.7166 26.6162 27.3651 26.4617C27.0136 26.3072 26.6339 26.2274 26.25 26.2274C25.8661 26.2274 25.4863 26.3072 25.1349 26.4617C24.7834 26.6162 24.4679 26.8421 24.2083 27.125L16.9167 34.2708C16.4114 34.7873 16.105 35.4657 16.0516 36.1863C15.9982 36.9068 16.2013 37.623 16.625 38.2083C16.861 38.5598 17.1745 38.8525 17.5413 39.0639C17.9081 39.2754 18.3184 39.4 18.7409 39.4282C19.1633 39.4563 19.5866 39.3873 19.9782 39.2264C20.3698 39.0655 20.7194 38.817 21 38.5L23.3333 36.1666V46.6666C23.3333 47.4402 23.6406 48.1821 24.1876 48.729C24.7346 49.276 25.4764 49.5833 26.25 49.5833Z" fill="#F4F4F4" stroke="black" stroke-width="0.00064"/>
<path d="M53.375 42C53.1389 41.6485 52.8255 41.3558 52.4587 41.1443C52.0919 40.9329 51.6815 40.8083 51.2591 40.7801C50.8366 40.752 50.4134 40.821 50.0218 40.9819C49.6301 41.1428 49.2806 41.3913 49 41.7083L46.6667 44.0416V33.5416C46.6667 32.7681 46.3594 32.0262 45.8124 31.4792C45.2654 30.9323 44.5235 30.625 43.75 30.625C42.9764 30.625 42.2346 30.9323 41.6876 31.4792C41.1406 32.0262 40.8333 32.7681 40.8333 33.5416V44.0416L38.5 41.7083C38.2194 41.3913 37.8698 41.1428 37.4782 40.9819C37.0866 40.821 36.6633 40.752 36.2409 40.7801C35.8184 40.8083 35.4081 40.9329 35.0413 41.1443C34.6745 41.3558 34.361 41.6485 34.125 42C33.7013 42.5852 33.4982 43.3015 33.5516 44.022C33.605 44.7426 33.9114 45.421 34.4167 45.9375L41.7083 53.0833C41.9679 53.3662 42.2834 53.5921 42.6349 53.7466C42.9863 53.9011 43.3661 53.9809 43.75 53.9809C44.1339 53.9809 44.5136 53.9011 44.8651 53.7466C45.2166 53.5921 45.5321 53.3662 45.7917 53.0833L53.0833 45.9375C53.5886 45.421 53.895 44.7426 53.9484 44.022C54.0018 43.3015 53.7987 42.5852 53.375 42Z" fill="#F4F4F4" stroke="black" stroke-width="0.00064"/>
<path d="M59.0625 31.7916C58.939 29.9541 58.4344 28.1623 57.5808 26.5303C56.7271 24.8984 55.5431 23.462 54.1042 22.3125C52.6104 21.0302 50.8678 20.0704 48.9857 19.4932C47.1035 18.9161 45.1225 18.7339 43.1667 18.9583C41.6464 16.378 39.4994 14.2233 36.9246 12.6937C34.3498 11.1641 31.4306 10.3093 28.4375 10.2083C25.9802 10.1796 23.5462 10.6865 21.3047 11.6939C19.0633 12.7013 17.0682 14.185 15.4583 16.0416C12.4254 19.3976 10.7603 23.7684 10.7917 28.2916C8.75169 29.6329 7.02047 31.3929 5.71299 33.4547C4.40552 35.5165 3.55172 37.8329 3.20832 40.25C2.70526 42.9102 2.85371 45.6526 3.64097 48.243C4.42824 50.8333 5.83092 53.1946 7.72916 55.125C11.196 58.2623 15.7432 59.9348 20.4167 59.7916H33.5417C34.3152 59.7916 35.0571 59.4844 35.604 58.9374C36.151 58.3904 36.4583 57.6485 36.4583 56.875C36.4583 56.1014 36.151 55.3596 35.604 54.8126C35.0571 54.2656 34.3152 53.9583 33.5417 53.9583H20.4167C18.8502 54.0528 17.2809 53.8302 15.8024 53.304C14.324 52.7778 12.967 51.9587 11.8125 50.8958C10.5797 49.6196 9.67132 48.066 9.16377 46.3657C8.65623 44.6655 8.56433 42.8682 8.89582 41.125C9.16059 39.26 9.91544 37.4987 11.0833 36.0208C12.0987 34.5196 13.446 33.2721 15.0208 32.375C15.5564 32.1548 16.0041 31.7636 16.2942 31.2624C16.5844 30.7613 16.7007 30.1783 16.625 29.6041C16.3774 26.0975 17.5313 22.6359 19.8333 19.9791C20.8946 18.7362 22.2143 17.7399 23.7004 17.0599C25.1865 16.3798 26.8032 16.0323 28.4375 16.0416C30.7808 16.0599 33.0465 16.8838 34.8542 18.375C36.6136 19.6549 38.0187 21.3611 38.9375 23.3333C39.1612 23.846 39.5275 24.2836 39.993 24.5939C40.4584 24.9041 41.0032 25.074 41.5625 25.0833H42.2917C43.7282 24.7164 45.2315 24.6969 46.677 25.0266C48.1226 25.3563 49.4688 26.0256 50.6042 26.9791C51.4558 27.8135 52.1279 28.813 52.5793 29.9164C53.0307 31.0198 53.2518 32.2038 53.2292 33.3958V33.9791C53.205 34.5279 53.3638 35.069 53.6805 35.5178C53.9973 35.9665 54.454 36.2973 54.9792 36.4583H55.2708C57.1573 37.1306 58.7618 38.4199 59.8245 40.1174C60.8873 41.8149 61.3461 43.8214 61.1268 45.8121C60.9075 47.8028 60.0229 49.6612 58.6161 51.0867C57.2093 52.5121 55.3626 53.4211 53.375 53.6666C52.7063 53.803 52.1065 54.1696 51.6802 54.7025C51.2539 55.2354 51.0279 55.901 51.0417 56.5833C51.0263 57.0176 51.1132 57.4493 51.2955 57.8437C51.4777 58.2382 51.7502 58.5842 52.0909 58.8539C52.4316 59.1236 52.8309 59.3094 53.2566 59.3963C53.6823 59.4832 54.1225 59.4688 54.5417 59.3541C57.9357 58.847 61.0461 57.1707 63.3359 54.6147C65.6257 52.0587 66.9511 48.7833 67.0833 45.3542C67.204 42.5595 66.5101 39.79 65.0862 37.3822C63.6623 34.9745 61.5696 33.0323 59.0625 31.7916Z" fill="#F4F4F4" stroke="black" stroke-width="0.00064"/>
</svg>
